<svg width="18" height="18" viewBox="0 0 18 18" fill="none" xmlns="http://www.w3.org/2000/svg">
<path fill-rule="evenodd" clip-rule="evenodd" d="M9 18C13.9706 18 18 13.9706 18 9C18 4.02944 13.9706 0 9 0C4.02944 0 0 4.02944 0 9C0 13.9706 4.02944 18 9 18ZM9.75 4C9.75 3.58579 9.41421 3.25 9 3.25C8.58579 3.25 8.25 3.58579 8.25 4V9.78947C8.25 9.98839 8.32902 10.1792 8.46967 10.3198L10.6802 12.5303C10.9731 12.8232 11.448 12.8232 11.7409 12.5303C12.0337 12.2374 12.0337 11.7626 11.7409 11.4697L9.75 9.47881V4Z" fill="#FE0034"/>
</svg>
