<svg width="19" height="18" viewBox="0 0 19 18" fill="none" xmlns="http://www.w3.org/2000/svg">
<path fill-rule="evenodd" clip-rule="evenodd" d="M0 9.56775H3.96618C4.08879 13.2879 5.42406 16.3048 7.82439 18C3.57887 17.4194 0.267486 13.9054 0 9.56775ZM9.06678 17.4419C11.4375 16.118 12.8991 13.352 13.0313 9.56775H5.10225C5.2345 13.352 6.69605 16.118 9.06678 17.4419ZM9.06679 0.558092C6.69606 1.88194 5.2345 4.64795 5.10225 8.43222H13.0313C12.8991 4.64795 11.4375 1.88194 9.06679 0.558092ZM10.3092 18C12.7095 16.3048 14.0448 13.2879 14.1674 9.56775H18.1336C17.8661 13.9054 14.5547 17.4194 10.3092 18ZM14.1674 8.43222H18.1336C17.8661 4.09463 14.5547 0.580627 10.3092 0C12.7095 1.69514 14.0448 4.71204 14.1674 8.43222ZM7.82439 0C3.57887 0.580627 0.267486 4.09463 0 8.43222H3.96618C4.08879 4.71204 5.42406 1.69514 7.82439 0Z" fill="#FE0034"/>
</svg>
