<svg width="78" height="119" viewBox="0 0 78 119" fill="none" xmlns="http://www.w3.org/2000/svg">
<path fill-rule="evenodd" clip-rule="evenodd" d="M0 80.0075C4.94787e-05 101.542 17.4576 119 38.9925 119C60.5275 119 77.985 101.542 77.9851 80.0075H0Z" fill="#FE0034"/>
<path fill-rule="evenodd" clip-rule="evenodd" d="M22.7178 17.8739C22.7178 17.8739 22.7179 17.874 22.7179 17.874C27.6537 22.8121 35.6579 22.8139 40.596 17.8782C45.534 12.9424 45.5358 4.93817 40.6001 0.000147246C40.6 9.37356e-05 40.6 4.02248e-05 40.5999 -1.32859e-05L22.7178 17.8739Z" fill="#FE0034"/>
<path d="M62.0441 28.2377L60.0817 47.5038L44.3779 36.1712L62.0441 28.2377Z" fill="#FE0034"/>
<circle cx="26.2949" cy="52.9338" r="11.6865" fill="#FE0034"/>
</svg>
