<svg width="130" height="42" viewBox="0 0 130 42" fill="none" xmlns="http://www.w3.org/2000/svg">
<path fill-rule="evenodd" clip-rule="evenodd" d="M0 25.6484C2.78317e-05 32.5519 5.59646 38.1483 12.5 38.1483C19.4035 38.1483 25 32.5519 25 25.6484H0Z" fill="#FE0034"/>
<path fill-rule="evenodd" clip-rule="evenodd" d="M7.2832 5.72992C7.28328 5.73 7.28336 5.73008 7.28344 5.73016C8.86571 7.31316 11.4317 7.31375 13.0147 5.73148C14.5977 4.14921 14.5983 1.58325 13.016 0.000249718C13.0159 0.000171025 13.0158 9.2333e-05 13.0158 1.36414e-05L7.2832 5.72992Z" fill="#FE0034"/>
<path d="M19.8899 9.05231L19.2608 15.2285L14.2266 11.5956L19.8899 9.05231Z" fill="#FE0034"/>
<circle cx="8.42999" cy="16.9693" r="3.7464" fill="#FE0034"/>
<path d="M57.5564 22.2447C57.4203 23.4452 57.0056 24.5035 56.3125 25.4194C55.6194 26.3229 54.7035 27.0284 53.5648 27.5359C52.4261 28.0433 51.1327 28.297 49.6846 28.297C48.0756 28.297 46.6646 27.9938 45.4516 27.3873C44.2511 26.7809 43.3166 25.933 42.6482 24.8438C41.9799 23.7547 41.6457 22.486 41.6457 21.0379C41.6457 19.5898 41.9799 18.3211 42.6482 17.232C43.3166 16.1428 44.2511 15.2949 45.4516 14.6885C46.6646 14.082 48.0756 13.7788 49.6846 13.7788C51.1327 13.7788 52.4261 14.0325 53.5648 14.5399C54.7035 15.0474 55.6194 15.7529 56.3125 16.6564C57.0056 17.5599 57.4203 18.6182 57.5564 19.8311H54.0289C53.9052 19.1999 53.6514 18.6615 53.2677 18.2159C52.8964 17.7704 52.4014 17.43 51.7825 17.1948C51.176 16.9473 50.4705 16.8235 49.666 16.8235C48.7377 16.8235 47.9394 16.9968 47.2711 17.3433C46.6027 17.6775 46.089 18.1602 45.7301 18.7915C45.3712 19.4227 45.1917 20.1715 45.1917 21.0379C45.1917 21.9043 45.3712 22.6531 45.7301 23.2843C46.089 23.9156 46.6027 24.4045 47.2711 24.751C47.9394 25.0852 48.7377 25.2523 49.666 25.2523C50.4705 25.2523 51.176 25.1347 51.7825 24.8995C52.4014 24.6644 52.8964 24.324 53.2677 23.8784C53.6514 23.4329 53.9052 22.8883 54.0289 22.2447H57.5564ZM61.8065 18.6058H65.2597V28H61.8065V18.6058ZM57.7035 17.4176H69.3812V20.0354H57.7035V17.4176ZM76.0035 28.297C74.6668 28.297 73.4971 28.0619 72.4946 27.5916C71.4921 27.1212 70.7123 26.4652 70.1553 25.6236C69.5984 24.782 69.3199 23.8104 69.3199 22.7088C69.3199 21.5949 69.5984 20.6233 70.1553 19.794C70.7123 18.9524 71.4921 18.2964 72.4946 17.8261C73.5095 17.3557 74.6791 17.1206 76.0035 17.1206C77.3402 17.1206 78.5098 17.3557 79.5124 17.8261C80.5273 18.2964 81.3133 18.9524 81.8702 19.794C82.4272 20.6233 82.7057 21.5949 82.7057 22.7088C82.7057 23.8227 82.4272 24.8005 81.8702 25.6422C81.3133 26.4714 80.5273 27.1212 79.5124 27.5916C78.5098 28.0619 77.3402 28.297 76.0035 28.297ZM76.0035 25.6979C76.6842 25.6979 77.2598 25.5803 77.7301 25.3451C78.2128 25.0976 78.5779 24.751 78.8255 24.3054C79.0854 23.8599 79.2153 23.3277 79.2153 22.7088C79.2153 22.09 79.0854 21.5577 78.8255 21.1122C78.5779 20.6666 78.2128 20.3262 77.7301 20.0911C77.2598 19.8435 76.6842 19.7197 76.0035 19.7197C75.3475 19.7197 74.7782 19.8435 74.2955 20.0911C73.8128 20.3262 73.4414 20.6666 73.1815 21.1122C72.9216 21.5577 72.7916 22.09 72.7916 22.7088C72.7916 23.3277 72.9216 23.8599 73.1815 24.3054C73.4414 24.751 73.8128 25.0976 74.2955 25.3451C74.7782 25.5803 75.3475 25.6979 76.0035 25.6979ZM85.3885 17.4176H96.6022V28H93.1675V18.4202L94.7456 19.9982H87.1152L88.5818 18.6801C88.6561 19.4351 88.7118 20.122 88.7489 20.7409C88.7861 21.3473 88.8046 21.8981 88.8046 22.3932C88.8046 24.4354 88.4952 25.9207 87.8763 26.8489C87.2575 27.7648 86.2549 28.2228 84.8687 28.2228C84.485 28.2228 84.1137 28.1795 83.7548 28.0928C83.3958 28.0186 83.0493 27.8824 82.7151 27.6844V25.2152C82.9379 25.3018 83.1545 25.3699 83.3649 25.4194C83.5877 25.4565 83.7857 25.4751 83.959 25.4751C84.5779 25.4751 85.0172 25.2028 85.2772 24.6582C85.5495 24.1012 85.6856 23.1853 85.6856 21.9105C85.6856 21.3164 85.6608 20.648 85.6113 19.9054C85.5618 19.1504 85.4876 18.3211 85.3885 17.4176ZM98.2784 28V17.4176H101.657V26.1434L100.878 25.9207L106.837 17.4176H111.274V28H107.877V19.0699L108.675 19.3113L102.586 28H98.2784ZM112.933 28V17.4176H116.368V25.2709L115.365 24.9181L121.473 17.4176H125.168L115.996 28H112.933ZM121.547 28L118.465 22.8202L121.028 20.9451L125.465 28H121.547Z" fill="#FE0034"/>
</svg>
